<svg width="512" height="512" viewBox="0 0 512 512" fill="none" xmlns="http://www.w3.org/2000/svg">
<path d="M242.862 423.752L159.306 229.632C156.493 222.88 152.695 217.535 147.912 213.596C143.13 209.376 136.659 207.125 128.5 206.844V202.624H247.082V206.844C237.236 207.969 230.765 212.33 227.67 219.926C224.576 227.522 225.56 237.087 230.624 248.622L274.09 350.324L307.006 273.942L289.704 229.632C287.172 223.161 283.796 217.816 279.576 213.596C275.356 209.376 269.589 207.125 262.274 206.844V202.624H368.618V206.844C359.616 207.969 353.708 212.33 350.894 219.926C348.362 227.522 349.347 237.087 353.848 248.622L392.672 350.324L431.496 251.154C432.903 247.497 433.888 244.121 434.45 241.026C435.013 237.931 435.294 234.977 435.294 232.164C435.294 225.131 433.466 219.363 429.808 214.862C426.151 210.361 420.806 207.688 413.772 206.844V202.624H473.696V206.844C467.226 208.532 460.896 212.752 454.706 219.504C448.517 226.256 443.031 235.54 438.248 247.356L368.618 423.752H365.242L309.538 281.116L247.082 423.752H242.862Z" fill="#1C1C1C"/>
<circle cx="193.5" cy="118.5" r="60.5" fill="#ECEBE4"/>
<circle cx="111" cy="389" r="55" fill="#417B5A"/>
</svg>
